<?xml version="1.0" encoding="utf-8"?>
<!-- Svg Vector Icons : http://www.onlinewebfonts.com/icon -->
<!DOCTYPE svg PUBLIC "-//W3C//DTD SVG 1.1//EN" "http://www.w3.org/Graphics/SVG/1.1/DTD/svg11.dtd">
<svg version="1.1" xmlns="http://www.w3.org/2000/svg" xmlns:xlink="http://www.w3.org/1999/xlink" x="0px" y="0px" viewBox="0 0 256 256" enable-background="new 0 0 256 256" xml:space="preserve">
<metadata> Svg Vector Icons : http://www.onlinewebfonts.com/icon </metadata>
<g><g><path fill="#000000" d="M10,58.4c0,0,4.6-6.1,7.7,0v38.5h4.1V58c0,0,4.6-4.8,7.9,0.9v38.1h3.9V59.5c0,0,5.5-7,8.5,0.9V112c0,0-1.8,5.9-6.8,5l-0.9,79c0,0-7.4,9.8-17.1,0l0.2-79h-5.4c0,0-2.2-0.2-2.2-2.8V58.4z"/><path fill="#000000" d="M213.6,64.8c0,0,7-15.7,17.7,0c0,0,8.3,26.7,11.6,42.9c0,0,7.4,23-0.9,22.5l-11.4,0l-0.9,60.8c0,0-5.3,15.9-16.2,0V64.8L213.6,64.8z"/><path fill="#000000" d="M128.1,72.7c0,0,56.4,0.7,56.4,55.3c0,0,2,51.7-56.4,55.8c0,0-52.7,0.2-56.2-55.6C71.9,128.2,68.9,77.3,128.1,72.7z"/><path fill="#000000" d="M128.1,67c0,0,57.5,0.4,61.7,61.2c0,0-2,58.9-61.7,61.5c0,0-58.4-3.3-61.7-61.4l-13.1-0.1c0,0,0.4,70.4,74.8,74.1c0,0,63.6,2.2,74.6-67.7c0,0,7.9-74.1-74.7-81L128.1,67z"/><path fill="#000000" d="M128.1,67c0,0-56-0.5-61.7,61.3l-13.1-0.1c0,0-1.8-69.1,74.7-74.6L128.1,67z"/></g></g>
</svg>